<svg xmlns="http://www.w3.org/2000/svg" viewBox="0 0 496 512" width="20" height="20" fill="currentColor">
  <path d="M165.9 397.4c0 2-2.3 3.6-5.2 3.6-3.3.3-5.6-1.3-5.6-3.6 0-2 
  2.3-3.6 5.2-3.6 3-.3 5.6 1.3 5.6 3.6zm-31.1-4.5c-.7 
  2 1.3 4.3 4.3 4.9 3 .7 6.3-.3 7-2.3.7-2-1.3-4.3-4.3-5-3-.6-6.3.4-7 
  2.4zm44.2-1.7c-2.9.7-4.9 2.6-4.6 4.6.3 2 2.9 3 5.9 2.3 2.9-.7 4.9-2.6 
  4.6-4.6-.3-1.9-3-3-5.9-2.3zM244 8C106.6 8 0 114.6 0 
  252c0 108.1 69.8 199.9 166.4 232.3 12.1 2.2 16.6-5.2 
  16.6-11.6 0-5.7-.2-20.8-.3-40.8-67.7 14.7-82-32.6-82-32.6-11-28-26.8-35.4-26.8-35.4-21.9-15 
  1.7-14.7 1.7-14.7 24.2 1.7 37 24.8 37 24.8 21.5 36.9 
  56.5 26.2 70.4 20 2.2-15.6 8.4-26.3 15.3-32.4-54-6.1-110.8-27-110.8-120 
  0-26.5 9.5-48.1 25-65-2.5-6.1-10.9-30.7 2.4-64 0 
  0 20.5-6.6 67.2 24.8 19.5-5.4 40.4-8.1 61.2-8.2 
  20.8.1 41.7 2.8 61.2 8.2 46.7-31.4 67.2-24.8 
  67.2-24.8 13.3 33.3 4.9 57.9 2.4 64 15.6 16.9 
  25 38.5 25 65 0 93.2-56.9 113.8-111 119.9 
  8.6 7.4 16.3 22.2 16.3 44.8 0 32.3-.3 58.3-.3 
  66.3 0 6.4 4.4 13.9 16.6 11.5C426.2 451.9 496 
  360.1 496 252 496 114.6 385.4 8 244 8z"/>
</svg>
